<svg width="24" height="24" viewBox="0 0 24 24" fill="none" xmlns="http://www.w3.org/2000/svg">
<g clip-path="url(#clip0_6_2)">
<path d="M12.007 24.0076L16.423 9.26492H7.59094L12.007 24.0076Z" fill="white"/>
<path d="M12.007 24.0075L7.59091 9.26482H1.4021L12.007 24.0075Z" fill="white"/>
<path d="M1.40207 9.26482L0.0601369 13.7451C0.000470214 13.9443 0.000461983 14.1588 0.0601134 14.358C0.119765 14.5572 0.236014 14.7308 0.392199 14.8539L12.007 24.0076L1.40198 9.26492L1.40207 9.26482Z" fill="white"/>
<path d="M1.4021 9.26491H7.59091L4.93132 0.385419C4.79444 -0.0714966 4.19857 -0.0713949 4.06179 0.385419L1.4021 9.26491Z" fill="white"/>
<path d="M12.0071 24.0075L16.4231 9.26482H22.612L12.0071 24.0075Z" fill="white"/>
<path d="M22.612 9.26482L23.9539 13.7451C24.0136 13.9443 24.0136 14.1588 23.9539 14.358C23.8942 14.5572 23.778 14.7308 23.6218 14.8539L12.0071 24.0076L22.612 9.26492V9.26482Z" fill="white"/>
<path d="M22.6119 9.26491H16.423L19.0827 0.385419C19.2195 -0.0714966 19.8154 -0.0713949 19.9522 0.385419L22.6119 9.26491Z" fill="white"/>
</g>
<defs>
<clipPath id="clip0_6_2">
<rect width="24" height="24" fill="white"/>
</clipPath>
</defs>
</svg>
