<svg width="24" height="24" viewBox="0 0 24 24" fill="none" xmlns="http://www.w3.org/2000/svg">
<g clip-path="url(#clip0_1_7)">
<path d="M21.75 0.562495H2.25C1.80756 0.557992 1.3814 0.729191 1.06504 1.03853C0.74867 1.34786 0.56794 1.77006 0.5625 2.2125V21.7912C0.568923 22.233 0.750087 22.6543 1.06634 22.9628C1.3826 23.2713 1.8082 23.442 2.25 23.4375H21.75C22.1925 23.441 22.6183 23.2692 22.9345 22.9597C23.2507 22.6502 23.4316 22.2281 23.4375 21.7856V2.20687C23.4296 1.76574 23.2479 1.34555 22.9319 1.03763C22.6159 0.729716 22.1912 0.558966 21.75 0.562495Z" fill="#0076B2"/>
<path d="M3.94874 9.13687H7.34437V20.0625H3.94874V9.13687ZM5.64749 3.69937C6.03695 3.69937 6.41767 3.81488 6.74147 4.0313C7.06527 4.24771 7.3176 4.5553 7.46656 4.91515C7.61551 5.275 7.65439 5.67094 7.57827 6.0529C7.50216 6.43485 7.31447 6.78564 7.03894 7.0609C6.76342 7.33616 6.41245 7.52352 6.03043 7.59927C5.6484 7.67502 5.25249 7.63577 4.89278 7.48647C4.53307 7.33717 4.22573 7.08454 4.00962 6.76054C3.79352 6.43653 3.67837 6.05571 3.67874 5.66625C3.67924 5.14443 3.88688 4.64415 4.25604 4.27534C4.6252 3.90653 5.12567 3.69937 5.64749 3.69937ZM9.47437 9.13687H12.7294V10.6369H12.7744C13.2281 9.77812 14.3344 8.8725 15.9862 8.8725C19.425 8.865 20.0625 11.1281 20.0625 14.0625V20.0625H16.6669V14.7469C16.6669 13.4812 16.6444 11.8519 14.9025 11.8519C13.1606 11.8519 12.8644 13.2319 12.8644 14.6644V20.0625H9.47437V9.13687Z" fill="white"/>
</g>
<defs>
<clipPath id="clip0_1_7">
<rect width="24" height="24" fill="white"/>
</clipPath>
</defs>
</svg>
